<svg style="background-color:#ffffff00" xmlns="http://www.w3.org/2000/svg" width="220" height="51"><path d="M15.138 43.71h-8.59V1.813C6.548.906 5.75.2 4.955.2H1.762c-.9 0-1.6.707-1.6 1.615v44.991c0 1.638 1.4 3.082 3.2 3.082h11.776c.9 0 1.6-.77 1.6-1.54v-3.083c0-.867-.7-1.555-1.6-1.555zM38.785 7.016c.865 0 1.553-.717 1.553-1.638V2.103c0-.92-.688-1.637-1.553-1.637H27.35c-1.789 0-3.189 1.433-3.189 3.275v43.043c0 1.758 1.4 3.31 3.189 3.31h11.434c.865 0 1.553-.724 1.553-1.655v-3.31c0-.919-.688-1.604-1.553-1.604h-8.36V28.637h8.36c.865 0 1.553-.686 1.553-1.567v-3.135c0-.881-.688-1.567-1.553-1.567h-8.36V7.016h8.36zm42.267 9.845h3.185c.9 0 1.6-.688 1.6-1.573v-3.343c0-6.293-5.183-11.308-11.609-11.308-6.377 0-11.566 5.015-11.566 11.308v26.537c0 6.276 5.189 11.535 11.566 11.535 6.426 0 11.61-5.26 11.61-11.535V23.541c0-.904-.7-1.628-1.6-1.628h-8.364c-.926 0-1.645.724-1.645 1.628v3.188c0 .796.72 1.494 1.645 1.494h3.586v10.26c0 2.789-2.352 5.08-5.231 5.08-2.88 0-5.183-2.291-5.183-5.08V11.944c0-2.852 2.303-5.015 5.182-5.015 2.88 0 5.232 2.163 5.232 5.015v3.343c0 .885.697 1.573 1.592 1.573zm35.086-4.783c0-6.465-5.084-11.801-11.49-11.801H96.36c-1.799 0-3.199 1.437-3.199 3.284V48c0 .737.7 1.475 1.6 1.475h3.192c.797 0 1.594-.738 1.594-1.476V28.566h5.1c2.81 0 5.112 2.248 5.112 4.985V48c0 .737.697 1.475 1.593 1.475h3.186c.898 0 1.599-.738 1.599-1.476V33.55c0-3.225-1.3-6.06-3.49-8.112 2.19-2.053 3.49-5.008 3.49-8.42v-4.94zm-6.379 4.94c0 2.998-2.302 5.292-5.112 5.292h-5.1V6.844h5.1c2.81 0 5.112 2.36 5.112 5.234v4.94zM136.5.36c-6.4 0-11.6 5.268-11.6 11.65v36.427c0 .844.7 1.5 1.6 1.5h3.2c.9 0 1.6-.656 1.6-1.5V28.624h10.301v19.813c0 .844.7 1.5 1.6 1.5h3.2c.9 0 1.6-.656 1.6-1.5V12.01c0-6.382-5.2-11.65-11.5-11.65zm5.101 21.78h-10.3V12.01c0-2.836 2.3-5.167 5.2-5.167 2.8 0 5.1 2.33 5.1 5.167v10.13zM172.349.262h-15.387c-.9 0-1.6.705-1.6 1.61v3.22c0 .906.7 1.61 1.6 1.61h4.5v41.735c0 .75.7 1.5 1.6 1.5h3.2c.9 0 1.6-.75 1.6-1.5V6.703h4.487c.896 0 1.593-.705 1.593-1.61v-3.22c0-.906-.697-1.61-1.593-1.61zm15.199 1.526c0-.907-.797-1.613-1.594-1.613h-3.192c-.9 0-1.6.706-1.6 1.613v46.65c0 .843.7 1.5 1.6 1.5h3.192c.897 0 1.594-.657 1.594-1.5V1.787zM207.913.175c-6.361 0-11.55 5.243-11.55 11.594v36.668c0 .75.7 1.5 1.6 1.5h3.19c.897 0 1.594-.75 1.594-1.5V11.77a5.15 5.15 0 0 1 5.166-5.141c2.777 0 5.058 2.318 5.058 5.141v36.668c0 .75.695 1.5 1.59 1.5h3.186c.896 0 1.593-.75 1.593-1.5V11.77c0-6.351-5.178-11.594-11.427-11.594z"/></svg>